# xmcd
#
# Track frame offsets: 
#        150
#        22954
#        38917
#        62015
#        82643
#        104003
#        125458
#        139075
#        160198
#        190757
#        204356
#        217551
#        230310
#        248788
#        270122
#        290485
#
# Disc length: 4202 seconds
#
# Revision: 0
# Processed by: cddbd v1.5.2PL0 Copyright (c) Steve Scherf et al.
# Submitted via: ExactAudioCopy v0.99pb3
#
DISCID=ca106810
DTITLE=Peter Green - The Anthology [CD4)
DYEAR=2008
DGENRE=Blues
TTITLE0=Big Change Is Gonna Come (With Splinter Group)
TTITLE1=I'm A Steady Rollin' Man Ft. Otis Rush (With Nigel Watson and Sp
TTITLE1=linter Group)
TTITLE2=It Takes Time (With Splinter Group)
TTITLE3=Don't Walk Away (With Splinter Group)
TTITLE4=Heart Of Stone (With Splinter Group)
TTITLE5=Love In Vain Blues (With Nigel Watson and Splinter Group)
TTITLE6=From Four Until Late Ft. Dr. John  (With Nigel Watson and Splint
TTITLE6=er Group)
TTITLE7=I'm Ready For You (With Splinter Group)
TTITLE8=Cruel Contradictions (With Dick Heckstall-Smith)
TTITLE9=Me And The Devil Blues (With Nigel Watson and Splinter Group)
TTITLE10=Cross Road Blues Ft. Buddy Guy (With Nigel Watson and Splinter 
TTITLE10=Group)
TTITLE11=Dead Shrimp Blues Ft. Hubert Sumlin (With Nigel Watson and Spli
TTITLE11=nter Group)
TTITLE12=Travelling Riverside Blues Ft. Joe Louis Walker and Honey Boy E
TTITLE12=dwards (With ...
TTITLE13=Time Keeps Slippin' Away (With Splinter Group)
TTITLE14=Look Out For Yourself (With Splinter Group)
TTITLE15=Albatross (With Chris Coco)
EXTD=
EXTT0=
EXTT1=
EXTT2=
EXTT3=
EXTT4=
EXTT5=
EXTT6=
EXTT7=
EXTT8=
EXTT9=
EXTT10=
EXTT11=
EXTT12=
EXTT13=
EXTT14=
EXTT15=
PLAYORDER=
